<?xml version="1.0" encoding="iso-8859-1"?>
<!DOCTYPE svg PUBLIC "-//W3C//DTD SVG 1.1//EN" "http://www.w3.org/Graphics/SVG/1.1/DTD/svg11.dtd">
<svg version="1.1" id="Capa_1" xmlns="http://www.w3.org/2000/svg" xmlns:xlink="http://www.w3.org/1999/xlink" x="0" y="0" width="26" height="26" viewBox="0 0 792 792" style="enable-background:new 0 0 792 792;" xml:space="preserve">
<g>
<path style="fill:#fff" d="M395.769,564.862c39.667,0,73.353-15.482,100.971-46.446c27.82-31.253,41.928-68.564,41.928-112.223V158.669
	c0-43.754-14.107-80.97-41.928-112.223C469.122,15.482,435.437,0,395.769,0c-39.215,0-73.142,15.194-100.971,46.447
	c-27.618,30.964-41.465,68.468-41.465,112.223v247.524c0,43.658,13.847,81.162,41.465,112.223
	C322.627,549.572,356.554,564.862,395.769,564.862z M303.366,158.669c0-30.195,9.02-55.871,27.05-77.027
	c18.021-21.252,39.658-32.022,65.353-32.022s47.784,10.771,65.814,32.022c18.031,21.156,27.041,46.832,27.041,77.027v98.759
	H303.366V158.669z M303.366,307.434h185.258v98.76c0,30.195-9.01,55.871-27.041,77.026c-18.03,21.156-40.119,32.022-65.814,32.022
	s-47.332-10.866-65.353-32.022c-18.03-21.155-27.05-46.831-27.05-77.026V307.434L303.366,307.434z"/>
<path style="fill:#fff" d="M604.924,321.377c-13.973,0-24.791,10.866-24.791,24.81v59.044c0,50.967-15.78,95.105-46.879,132.994
	c-31.1,37.888-69.872,59.524-116.3,65.391h-41.917c-46.428-5.866-85.643-27.503-116.742-65.391
	c-31.109-37.889-46.428-82.027-46.428-132.994v-59.044c0-13.944-10.818-24.81-24.8-24.81c-13.973,0-25.233,10.866-25.233,24.81
	v59.044c0,63.564,19.694,119.531,59.496,166.844c39.985,47.408,89.701,74.814,149.197,81.546v88.374h-74.825
	c-13.972,0-24.791,11.251-24.791,25.194c0,14.04,10.818,24.811,24.791,24.811h199.693c13.973,0,24.791-10.771,24.791-24.811
	c0-13.943-10.818-25.194-24.791-25.194h-74.834v-88.374h0.903c59.506-6.731,108.953-34.33,148.755-81.546
	c39.984-47.505,59.948-103.279,59.948-166.844v-59.044C630.167,332.244,618.896,321.377,604.924,321.377z"/></g>
</svg>