<?xml version="1.0" encoding="iso-8859-1"?>
<svg version="1.1" id="Capa_1" xmlns="http://www.w3.org/2000/svg" xmlns:xlink="http://www.w3.org/1999/xlink" x="0" y="0" width="26" height="26" viewBox="0 0 23.305 23.305" style="enable-background:new 0 0 23.305 23.305;" xml:space="preserve">
<g><path style="fill:#fff" d="M9.446,7.118l1.742,3.416l2.582-7.953l-7.954-2.58l1.728,3.39c-4.067,1.452-6.98,5.327-6.98,9.892
	c0,4.7,3.085,8.677,7.341,10.021c-2.564-1.618-4.272-4.468-4.272-7.72C3.632,11.719,6.051,8.447,9.446,7.118z"/>
<path style="fill:#fff" d="M13.861,16.189l-1.743-3.417l-2.579,7.952l7.951,2.581l-1.729-3.391
	c4.068-1.45,6.98-5.326,6.98-9.893c0-4.699-3.084-8.676-7.34-10.021c2.563,1.618,4.273,4.467,4.273,7.72
	C19.675,11.587,17.256,14.857,13.861,16.189z"/></g>
</svg>