<?xml version="1.0" encoding="iso-8859-1"?>
<!DOCTYPE svg PUBLIC "-//W3C//DTD SVG 1.1//EN" "http://www.w3.org/Graphics/SVG/1.1/DTD/svg11.dtd">
<svg version="1.1" id="Capa_1" xmlns="http://www.w3.org/2000/svg" xmlns:xlink="http://www.w3.org/1999/xlink" x="0" y="0" width="26" height="26" viewBox="0 0 112 112" style="enable-background:new 0 0 112 112;" xml:space="preserve">
<g><path style="fill:#fff" d="M17.512,58.482l-11.6,0.762C4.409,36.116,18.805,15.112,40.907,8.13c12.955-4.083,26.978-2.669,38.892,3.766L90.935,0
	l2.969,33.012l-34.967,1.167l12.575-13.436c-8.519-3.752-18.148-4.345-27.1-1.507C27.407,24.589,16.365,40.721,17.512,58.482z
	 M106.085,52.761l-11.604,0.761c1.162,17.724-9.894,33.876-26.896,39.242C58.636,95.588,49.003,95,40.501,91.261l12.567-13.448
	L18.12,78.99L21.083,112l11.159-11.915c7.382,3.967,15.558,6.095,23.795,6.095c5.053,0,10.146-0.779,15.044-2.312
	C93.216,96.871,107.612,75.855,106.085,52.761z"/></g>
</svg>