<?xml version="1.0" encoding="iso-8859-1"?>
<!DOCTYPE svg PUBLIC "-//W3C//DTD SVG 1.1//EN" "http://www.w3.org/Graphics/SVG/1.1/DTD/svg11.dtd">
<svg version="1.1" id="Capa_1" xmlns="http://www.w3.org/2000/svg" xmlns:xlink="http://www.w3.org/1999/xlink" x="0" y="0" width="26" height="26" viewBox="0 0 400.041 440.041" style="enable-background:new 0 0 400.041 440.041;" xml:space="preserve">
<g><path style="fill:#fff" d="M296.445,260.832v117.971H88.421V61.241h208.023v47.519c5.491-14.334,15.664-15.937,19.901-15.937
	c0.031,0,0.064,0.003,0.099,0.003V30c0-16.543-13.457-30-30-30H98.421c-16.541,0-30,13.457-30,30v380.041
	c0,16.543,13.459,30,30,30h188.023c16.543,0,30-13.457,30-30V261.398c-3.888-0.533-8.07-0.852-12.563-0.852
	C301.433,260.548,298.951,260.646,296.445,260.832z M192.434,418.521c-7.041,0-12.75-5.709-12.75-12.75
	c0-7.044,5.709-12.75,12.75-12.75c7.041,0,12.75,5.706,12.75,12.75C205.184,412.812,199.475,418.521,192.434,418.521z"/>
<path style="fill:#fff" d="M370.898,259.684l-18.067-53.416c5.576-6.756,7.319-15.859,4.524-24.138c-2.799-8.267-9.705-14.44-18.248-16.425
	l-18.102-53.525c-0.982-2.895-2.502-4.357-4.512-4.357c-3.146,0-4.799,2.618-6.299,7.42
	c-13.134,52.287-71.868,68.92-72.608,69.125l-38.33,11.967c-7.473,2.898-20.086,12.824-14.389,29.662l8.799,26.015
	c0.244,0.754,6.07,18.502,21.838,18.502c2.445,0,5.017-0.448,7.479-1.278c0,0,4.213-2.207,7.763,8.227l15.875,46.902
	c0.562,2.846,3.017,7.856,8.66,7.856c1.094,0,2.252-0.192,3.459-0.578c0,0,11.663-3.222,13.359-9.55
	c2.531-9.427-10.924-34.883-14.338-40.228c-14.942-23.402,3.299-28.772,3.459-28.831c14.697-4.97,29.103-7.485,42.808-7.485
	c37.139,0,57.649,18.599,57.854,18.778c0,0,3.15,2.751,6.072,2.444c1.803-0.189,2.606-1.093,3.012-1.684
	C372.156,263.344,371.466,261.09,370.898,259.684z"/></g>
</svg>